<svg width="24" height="25" viewBox="0 0 24 25" fill="none" xmlns="http://www.w3.org/2000/svg">
<path d="M6.29317 5.24052L9.79317 8.7494C9.91566 8.87179 10.0677 8.96028 10.2344 9.00624C10.4012 9.0522 10.5769 9.05407 10.7446 9.01166C10.9123 8.96926 11.0662 8.88403 11.1912 8.76427C11.3163 8.64452 11.4082 8.49433 11.4582 8.32834L12.9582 3.31565C13.01 3.14228 13.014 2.95809 12.9699 2.78261C12.9257 2.60712 12.835 2.44689 12.7074 2.31892C12.5797 2.19094 12.4199 2.1 12.2449 2.05573C12.0698 2.01147 11.8861 2.01553 11.7132 2.06749L6.71317 3.57129C6.54797 3.62184 6.3986 3.71429 6.27951 3.83969C6.16041 3.9651 6.07564 4.11921 6.03339 4.28711C5.99115 4.455 5.99287 4.63098 6.03838 4.79802C6.08389 4.96505 6.17165 5.11747 6.29317 5.24052Z" fill="#193469" fill-opacity="0.6"/>
<path d="M4.95985 8.19801C3.25185 9.70282 3.00785 12.3766 4.41185 14.1812C5.82585 15.9978 8.40185 16.2935 10.1678 14.8408L15.0478 10.8267C15.2667 10.6464 15.5195 10.5122 15.7911 10.4318C16.0628 10.3515 16.3478 10.3268 16.6292 10.3592C16.9106 10.3916 17.1826 10.4803 17.4291 10.6202C17.6755 10.7601 17.8914 10.9483 18.0638 11.1735C18.8128 12.136 18.6808 13.5796 17.7708 14.3817L16.7278 15.3C16.3188 15.6609 16.2718 16.2925 16.6218 16.7136C16.9718 17.1346 17.5878 17.1828 17.9968 16.8218L19.0399 15.9035C20.7479 14.3977 20.9928 11.7269 19.5868 9.92037C18.1748 8.10577 15.5948 7.80902 13.8308 9.2607L8.95085 13.2749C8.73211 13.4554 8.47936 13.5899 8.20765 13.6703C7.93595 13.7508 7.65087 13.7756 7.36941 13.7432C7.08795 13.7108 6.81587 13.622 6.5694 13.4819C6.32294 13.3418 6.10713 13.1535 5.93485 12.928C5.18785 11.9676 5.31885 10.5219 6.22785 9.71986L6.76985 9.30381C7.17885 8.94289 7.22985 8.31129 6.87985 7.89023C6.79763 7.79041 6.69625 7.70817 6.58172 7.64839C6.46719 7.58861 6.34185 7.55251 6.21313 7.54222C6.08442 7.53194 5.95496 7.54768 5.83243 7.58852C5.7099 7.62935 5.5968 7.69445 5.49985 7.77995L4.95985 8.19801Z" fill="#193469" fill-opacity="0.6"/>
<path d="M10 19.0685C10 18.2709 10.3161 17.5059 10.8787 16.9418C11.4413 16.3778 12.2044 16.0609 13 16.0609C13.7956 16.0609 14.5587 16.3778 15.1213 16.9418C15.6839 17.5059 16 18.2709 16 19.0685C16 19.8662 15.6839 20.6312 15.1213 21.1952C14.5587 21.7593 13.7956 22.0761 13 22.0761C12.2044 22.0761 11.4413 21.7593 10.8787 21.1952C10.3161 20.6312 10 19.8662 10 19.0685Z" fill="#193469" fill-opacity="0.6"/>
</svg>
