<svg width="1440" height="85" viewBox="0 0 1440 85" fill="none" xmlns="http://www.w3.org/2000/svg">
<g filter="url(#filter0_b_2931_4028)">
<mask id="path-1-inside-1_2931_4028" fill="white">
<path fill-rule="evenodd" clip-rule="evenodd" d="M8.30502e-05 0.798977L690.3 0.79883L690.3 17.5988L659.755 17.5988L679.02 34.3988L690.3 34.3988L690.3 51.1988L679.016 51.1988L659.752 67.9987L690.3 67.9987L690.3 84.7986L8.022e-05 84.7988L7.94857e-05 67.9988L30.5487 67.9988L11.2847 51.199L7.27875e-07 51.199L-6.4746e-09 34.399L11.2806 34.399L30.5449 17.5989L8.37846e-05 17.5989L8.30502e-05 0.798977ZM605.264 67.9988L586 51.199L564.073 51.199L544.809 67.9988L605.264 67.9988ZM585.996 34.399L605.261 17.5989L544.813 17.5989L564.077 34.399L585.996 34.399ZM632.508 67.9987L632.512 67.9987L632.512 67.9956L661.406 42.7971L632.512 17.5988L632.508 17.5989L632.505 17.5987L603.61 42.7972L632.505 67.9957L632.505 67.9988L632.508 67.9987ZM490.321 67.9988L471.057 51.199L449.13 51.199L429.866 67.9988L490.321 67.9988ZM471.053 34.399L490.317 17.5989L429.87 17.5989L449.134 34.399L471.053 34.399ZM517.569 67.9988L517.569 67.9958L546.463 42.7972L517.569 17.5989L517.561 17.5989L488.667 42.7972L517.561 67.9957L517.561 67.9988L517.569 67.9988ZM375.378 67.9988L356.114 51.199L334.187 51.199L314.923 67.9988L375.378 67.9988ZM356.11 34.399L375.374 17.5989L314.927 17.5989L334.191 34.399L356.11 34.399ZM402.626 67.9988L402.626 67.9957L431.52 42.7972L402.626 17.5989L402.618 17.5989L373.723 42.7972L402.618 67.9957L402.618 67.9988L402.626 67.9988ZM260.435 67.9988L241.171 51.199L219.244 51.199L199.98 67.9988L260.435 67.9988ZM241.167 34.399L260.431 17.5989L199.983 17.5989L219.248 34.399L241.167 34.399ZM287.683 67.9988L287.683 67.9957L316.577 42.7972L287.683 17.5989L287.675 17.5989L258.78 42.7972L287.675 67.9958L287.675 67.9988L287.683 67.9988ZM145.492 67.9988L126.228 51.199L104.301 51.199L85.0366 67.9988L145.492 67.9988ZM126.224 34.399L145.488 17.5989L85.0404 17.5989L104.305 34.399L126.224 34.399ZM172.74 67.9988L172.74 67.9957L201.634 42.7972L172.74 17.5989L172.732 17.5989L143.837 42.7972L172.732 67.9957L172.732 67.9988L172.74 67.9988ZM57.7965 67.9988L57.7965 67.9958L86.6911 42.7972L57.7967 17.5989L57.7886 17.5989L28.8942 42.7972L57.7889 67.9957L57.7888 67.9988L57.7965 67.9988Z"/>
<path fill-rule="evenodd" clip-rule="evenodd" d="M690.3 84.7986L690.3 67.9987L720.85 67.9988L701.585 51.1989L690.3 51.1988L690.3 34.3988L701.581 34.3989L720.846 17.5989L690.3 17.5988L690.3 0.79883L805.618 0.798832L805.618 17.5988L775.073 17.5988L794.338 34.3988L805.618 34.3988L805.618 51.1988L794.333 51.1988L775.069 67.9987L805.618 67.9987L805.618 84.7986L690.3 84.7986ZM747.959 67.8821L776.724 42.7971L747.96 17.7122L719.195 42.7972L747.959 67.8821Z"/>
<path fill-rule="evenodd" clip-rule="evenodd" d="M805.618 84.7986L805.618 67.9987L836.167 67.9988L816.903 51.1989L805.618 51.1988L805.618 34.3988L816.899 34.399L836.164 17.5989L805.618 17.5988L805.618 0.798832L920.936 0.798833L920.936 17.5988L890.391 17.5988L909.655 34.3989L920.936 34.3989L920.936 51.1988L909.651 51.1988L890.387 67.9987L920.936 67.9987L920.936 84.7986L805.618 84.7986ZM863.277 17.7122L892.042 42.7971L863.277 67.882L834.513 42.7972L863.277 17.7122Z"/>
<path fill-rule="evenodd" clip-rule="evenodd" d="M920.936 84.7986L920.936 67.9987L951.485 67.9988L932.221 51.1989L920.936 51.1988L920.936 34.3989L932.217 34.3989L951.481 17.5989L920.936 17.5988L920.936 0.798833L1036.25 0.798828L1036.25 17.5988L1005.71 17.5988L1024.97 34.3988L1036.25 34.3988L1036.25 51.1988L1024.97 51.1988L1005.7 67.9987L1036.25 67.9987L1036.25 84.7986L920.936 84.7986ZM978.595 67.8821L1007.36 42.7971L978.595 17.7122L949.831 42.7972L978.595 67.8821Z"/>
<path fill-rule="evenodd" clip-rule="evenodd" d="M1036.25 84.7986L1036.25 67.9987L1066.8 67.9988L1047.54 51.1989L1036.25 51.1988L1036.25 34.3988L1047.53 34.3989L1066.8 17.5989L1036.25 17.5988L1036.25 0.798828L1151.57 0.798829L1151.57 17.5988L1121.03 17.5988L1140.29 34.3989L1151.57 34.3988L1151.57 51.1988L1140.29 51.1988L1121.02 67.9987L1151.57 67.9987L1151.57 84.7986L1036.25 84.7986ZM1093.91 17.7121L1122.68 42.7971L1093.91 67.8821L1065.15 42.7972L1093.91 17.7121Z"/>
<path fill-rule="evenodd" clip-rule="evenodd" d="M1151.57 84.7986L1151.57 67.9987L1182.12 67.9988L1162.86 51.1989L1151.57 51.1988L1151.57 34.3988L1162.85 34.3989L1182.12 17.5989L1151.57 17.5988L1151.57 0.798829L1266.89 0.798831L1266.89 17.5988L1236.34 17.5988L1255.61 34.3988L1266.89 34.3988L1266.89 51.1988L1255.6 51.1988L1236.34 67.9987L1266.89 67.9987L1266.89 84.7986L1151.57 84.7986ZM1209.23 67.8821L1237.99 42.7971L1209.23 17.7122L1180.47 42.7972L1209.23 67.8821Z"/>
<path fill-rule="evenodd" clip-rule="evenodd" d="M1266.89 84.7986L1266.89 67.9987L1297.44 67.9988L1278.17 51.1989L1266.89 51.1988L1266.89 34.3988L1278.17 34.3989L1297.43 17.5989L1266.89 17.5988L1266.89 0.798831L1382.21 0.798832L1382.21 17.5988L1351.66 17.5988L1370.93 34.3989L1382.21 34.3988L1382.21 51.1988L1370.92 51.1988L1351.66 67.9987L1382.21 67.9987L1382.21 84.7986L1266.89 84.7986ZM1324.55 17.7122L1353.31 42.7971L1324.55 67.882L1295.78 42.7972L1324.55 17.7122Z"/>
<path d="M1440 17.5989L1440 17.5989L1440 0.79894L1382.21 0.798832L1382.21 17.5988L1412.75 17.5989L1393.49 34.3989L1382.21 34.3988L1382.21 51.1988L1393.49 51.1989L1412.76 67.9988L1382.21 67.9987L1382.21 84.7986L1440 84.7987L1440 67.9988L1439.99 67.9988L1440 67.9957L1411.1 42.7972L1440 17.5989Z"/>
</mask>
<path fill-rule="evenodd" clip-rule="evenodd" d="M8.30502e-05 0.798977L690.3 0.79883L690.3 17.5988L659.755 17.5988L679.02 34.3988L690.3 34.3988L690.3 51.1988L679.016 51.1988L659.752 67.9987L690.3 67.9987L690.3 84.7986L8.022e-05 84.7988L7.94857e-05 67.9988L30.5487 67.9988L11.2847 51.199L7.27875e-07 51.199L-6.4746e-09 34.399L11.2806 34.399L30.5449 17.5989L8.37846e-05 17.5989L8.30502e-05 0.798977ZM605.264 67.9988L586 51.199L564.073 51.199L544.809 67.9988L605.264 67.9988ZM585.996 34.399L605.261 17.5989L544.813 17.5989L564.077 34.399L585.996 34.399ZM632.508 67.9987L632.512 67.9987L632.512 67.9956L661.406 42.7971L632.512 17.5988L632.508 17.5989L632.505 17.5987L603.61 42.7972L632.505 67.9957L632.505 67.9988L632.508 67.9987ZM490.321 67.9988L471.057 51.199L449.13 51.199L429.866 67.9988L490.321 67.9988ZM471.053 34.399L490.317 17.5989L429.87 17.5989L449.134 34.399L471.053 34.399ZM517.569 67.9988L517.569 67.9958L546.463 42.7972L517.569 17.5989L517.561 17.5989L488.667 42.7972L517.561 67.9957L517.561 67.9988L517.569 67.9988ZM375.378 67.9988L356.114 51.199L334.187 51.199L314.923 67.9988L375.378 67.9988ZM356.11 34.399L375.374 17.5989L314.927 17.5989L334.191 34.399L356.11 34.399ZM402.626 67.9988L402.626 67.9957L431.52 42.7972L402.626 17.5989L402.618 17.5989L373.723 42.7972L402.618 67.9957L402.618 67.9988L402.626 67.9988ZM260.435 67.9988L241.171 51.199L219.244 51.199L199.98 67.9988L260.435 67.9988ZM241.167 34.399L260.431 17.5989L199.983 17.5989L219.248 34.399L241.167 34.399ZM287.683 67.9988L287.683 67.9957L316.577 42.7972L287.683 17.5989L287.675 17.5989L258.78 42.7972L287.675 67.9958L287.675 67.9988L287.683 67.9988ZM145.492 67.9988L126.228 51.199L104.301 51.199L85.0366 67.9988L145.492 67.9988ZM126.224 34.399L145.488 17.5989L85.0404 17.5989L104.305 34.399L126.224 34.399ZM172.74 67.9988L172.74 67.9957L201.634 42.7972L172.74 17.5989L172.732 17.5989L143.837 42.7972L172.732 67.9957L172.732 67.9988L172.74 67.9988ZM57.7965 67.9988L57.7965 67.9958L86.6911 42.7972L57.7967 17.5989L57.7886 17.5989L28.8942 42.7972L57.7889 67.9957L57.7888 67.9988L57.7965 67.9988Z" fill="#146CE2" fill-opacity="0.2"/>
<path fill-rule="evenodd" clip-rule="evenodd" d="M690.3 84.7986L690.3 67.9987L720.85 67.9988L701.585 51.1989L690.3 51.1988L690.3 34.3988L701.581 34.3989L720.846 17.5989L690.3 17.5988L690.3 0.79883L805.618 0.798832L805.618 17.5988L775.073 17.5988L794.338 34.3988L805.618 34.3988L805.618 51.1988L794.333 51.1988L775.069 67.9987L805.618 67.9987L805.618 84.7986L690.3 84.7986ZM747.959 67.8821L776.724 42.7971L747.96 17.7122L719.195 42.7972L747.959 67.8821Z" fill="#146CE2" fill-opacity="0.2"/>
<path fill-rule="evenodd" clip-rule="evenodd" d="M805.618 84.7986L805.618 67.9987L836.167 67.9988L816.903 51.1989L805.618 51.1988L805.618 34.3988L816.899 34.399L836.164 17.5989L805.618 17.5988L805.618 0.798832L920.936 0.798833L920.936 17.5988L890.391 17.5988L909.655 34.3989L920.936 34.3989L920.936 51.1988L909.651 51.1988L890.387 67.9987L920.936 67.9987L920.936 84.7986L805.618 84.7986ZM863.277 17.7122L892.042 42.7971L863.277 67.882L834.513 42.7972L863.277 17.7122Z" fill="#146CE2" fill-opacity="0.2"/>
<path fill-rule="evenodd" clip-rule="evenodd" d="M920.936 84.7986L920.936 67.9987L951.485 67.9988L932.221 51.1989L920.936 51.1988L920.936 34.3989L932.217 34.3989L951.481 17.5989L920.936 17.5988L920.936 0.798833L1036.25 0.798828L1036.25 17.5988L1005.71 17.5988L1024.97 34.3988L1036.25 34.3988L1036.25 51.1988L1024.97 51.1988L1005.7 67.9987L1036.25 67.9987L1036.25 84.7986L920.936 84.7986ZM978.595 67.8821L1007.36 42.7971L978.595 17.7122L949.831 42.7972L978.595 67.8821Z" fill="#146CE2" fill-opacity="0.2"/>
<path fill-rule="evenodd" clip-rule="evenodd" d="M1036.25 84.7986L1036.25 67.9987L1066.8 67.9988L1047.54 51.1989L1036.25 51.1988L1036.25 34.3988L1047.53 34.3989L1066.8 17.5989L1036.25 17.5988L1036.25 0.798828L1151.57 0.798829L1151.57 17.5988L1121.03 17.5988L1140.29 34.3989L1151.57 34.3988L1151.57 51.1988L1140.29 51.1988L1121.02 67.9987L1151.57 67.9987L1151.57 84.7986L1036.25 84.7986ZM1093.91 17.7121L1122.68 42.7971L1093.91 67.8821L1065.15 42.7972L1093.91 17.7121Z" fill="#146CE2" fill-opacity="0.2"/>
<path fill-rule="evenodd" clip-rule="evenodd" d="M1151.57 84.7986L1151.57 67.9987L1182.12 67.9988L1162.86 51.1989L1151.57 51.1988L1151.57 34.3988L1162.85 34.3989L1182.12 17.5989L1151.57 17.5988L1151.57 0.798829L1266.89 0.798831L1266.89 17.5988L1236.34 17.5988L1255.61 34.3988L1266.89 34.3988L1266.89 51.1988L1255.6 51.1988L1236.34 67.9987L1266.89 67.9987L1266.89 84.7986L1151.57 84.7986ZM1209.23 67.8821L1237.99 42.7971L1209.23 17.7122L1180.47 42.7972L1209.23 67.8821Z" fill="#146CE2" fill-opacity="0.2"/>
<path fill-rule="evenodd" clip-rule="evenodd" d="M1266.89 84.7986L1266.89 67.9987L1297.44 67.9988L1278.17 51.1989L1266.89 51.1988L1266.89 34.3988L1278.17 34.3989L1297.43 17.5989L1266.89 17.5988L1266.89 0.798831L1382.21 0.798832L1382.21 17.5988L1351.66 17.5988L1370.93 34.3989L1382.21 34.3988L1382.21 51.1988L1370.92 51.1988L1351.66 67.9987L1382.21 67.9987L1382.21 84.7986L1266.89 84.7986ZM1324.55 17.7122L1353.31 42.7971L1324.55 67.882L1295.78 42.7972L1324.55 17.7122Z" fill="#146CE2" fill-opacity="0.2"/>
<path d="M1440 17.5989L1440 17.5989L1440 0.79894L1382.21 0.798832L1382.21 17.5988L1412.75 17.5989L1393.49 34.3989L1382.21 34.3988L1382.21 51.1988L1393.49 51.1989L1412.76 67.9988L1382.21 67.9987L1382.21 84.7986L1440 84.7987L1440 67.9988L1439.99 67.9988L1440 67.9957L1411.1 42.7972L1440 17.5989Z" fill="#146CE2" fill-opacity="0.2"/>
<path d="M689.8 0.79883L689.8 17.5988L690.8 17.5988L690.8 0.79883L689.8 0.79883ZM689.8 34.3988L689.8 51.1988L690.8 51.1988L690.8 34.3988L689.8 34.3988ZM689.8 67.9987L689.8 84.7986L690.8 84.7986L690.8 67.9987L689.8 67.9987ZM805.118 0.798832L805.118 17.5988L806.118 17.5988L806.118 0.798832L805.118 0.798832ZM805.118 34.3988L805.118 51.1988L806.118 51.1988L806.118 34.3988L805.118 34.3988ZM805.118 67.9987L805.118 84.7986L806.118 84.7986L806.118 67.9987L805.118 67.9987ZM921.436 17.5988L921.436 0.798833L920.436 0.798833L920.436 17.5988L921.436 17.5988ZM921.436 51.1988L921.436 34.3989L920.436 34.3989L920.436 51.1988L921.436 51.1988ZM921.436 84.7986L921.436 67.9987L920.436 67.9987L920.436 84.7986L921.436 84.7986ZM1035.75 0.798828L1035.75 17.5988L1036.75 17.5988L1036.75 0.798828L1035.75 0.798828ZM1035.75 34.3988L1035.75 51.1988L1036.75 51.1988L1036.75 34.3988L1035.75 34.3988ZM1035.75 67.9987L1035.75 84.7986L1036.75 84.7986L1036.75 67.9987L1035.75 67.9987ZM1152.07 17.5988L1152.07 0.798829L1151.07 0.798829L1151.07 17.5988L1152.07 17.5988ZM1152.07 51.1988L1152.07 34.3988L1151.07 34.3988L1151.07 51.1988L1152.07 51.1988ZM1152.07 84.7986L1152.07 67.9987L1151.07 67.9987L1151.07 84.7986L1152.07 84.7986ZM1266.39 0.798831L1266.39 17.5988L1267.39 17.5988L1267.39 0.798831L1266.39 0.798831ZM1266.39 34.3988L1266.39 51.1988L1267.39 51.1988L1267.39 34.3988L1266.39 34.3988ZM1266.39 67.9987L1266.39 84.7986L1267.39 84.7986L1267.39 67.9987L1266.39 67.9987ZM1382.71 17.5988L1382.71 0.798832L1381.71 0.798832L1381.71 17.5988L1382.71 17.5988ZM1382.71 51.1988L1382.71 34.3988L1381.71 34.3988L1381.71 51.1988L1382.71 51.1988ZM1382.71 84.7986L1382.71 67.9987L1381.71 67.9987L1381.71 84.7986L1382.71 84.7986ZM8.30502e-05 0.798977L8.28381e-05 -0.201023L-0.999917 -0.201023L-0.999917 0.798977L8.30502e-05 0.798977ZM690.3 0.79883L690.3 -0.20117L690.3 0.79883ZM690.3 17.5988L690.3 16.5988L690.3 17.5988ZM659.755 17.5988L659.755 16.5988L657.087 16.5988L659.098 18.3525L659.755 17.5988ZM679.02 34.3988L678.363 35.1525L678.645 35.3988L679.02 35.3988L679.02 34.3988ZM690.3 34.3988L690.3 33.3988L690.3 34.3988ZM690.3 51.1988L690.3 50.1988L690.3 51.1988ZM679.016 51.1988L679.016 50.1988L678.641 50.1988L678.358 50.4451L679.016 51.1988ZM659.752 67.9987L659.094 67.245L657.084 68.9987L659.752 68.9987L659.752 67.9987ZM690.3 67.9987L690.3 66.9987L690.3 67.9987ZM690.3 84.7986L690.3 83.7986L690.3 84.7986ZM8.022e-05 84.7988L-0.99992 84.7988L-0.99992 85.7988L8.04355e-05 85.7988L8.022e-05 84.7988ZM7.94857e-05 67.9988L7.94859e-05 66.9988L-0.999921 66.9988L-0.999921 67.9988L7.94857e-05 67.9988ZM30.5487 67.9988L30.5487 68.9988L33.2169 68.9988L31.206 67.2451L30.5487 67.9988ZM11.2847 51.199L11.9419 50.4453L11.6595 50.199L11.2847 50.199L11.2847 51.199ZM7.27875e-07 51.199L-0.999999 51.199L-0.999999 52.199L7.27682e-07 52.199L7.27875e-07 51.199ZM-6.4746e-09 34.399L-6.28191e-09 33.399L-1 33.399L-1 34.399L-6.4746e-09 34.399ZM11.2806 34.399L11.2806 35.399L11.6554 35.399L11.9379 35.1527L11.2806 34.399ZM30.5449 17.5989L31.2022 18.3526L33.2131 16.5989L30.5449 16.5989L30.5449 17.5989ZM8.37846e-05 17.5989L-0.999916 17.5989L-0.999916 18.5989L8.38374e-05 18.5989L8.37846e-05 17.5989ZM605.264 67.9988L605.264 68.9988L607.933 68.9988L605.922 67.2451L605.264 67.9988ZM586 51.199L586.658 50.4453L586.375 50.199L586 50.199L586 51.199ZM564.073 51.199L564.073 50.199L563.698 50.199L563.416 50.4453L564.073 51.199ZM544.809 67.9988L544.152 67.2451L542.141 68.9988L544.809 68.9988L544.809 67.9988ZM585.996 34.399L585.996 35.399L586.371 35.399L586.654 35.1527L585.996 34.399ZM605.261 17.5989L605.918 18.3526L607.929 16.5989L605.261 16.5989L605.261 17.5989ZM544.813 17.5989L544.813 16.5989L542.145 16.5989L544.156 18.3526L544.813 17.5989ZM564.077 34.399L563.42 35.1527L563.702 35.399L564.077 35.399L564.077 34.399ZM632.508 67.9987L632.508 66.9987L632.486 66.9987L632.464 66.9996L632.508 67.9987ZM632.512 67.9987L632.512 68.9987L633.512 68.9987L633.512 67.9987L632.512 67.9987ZM632.512 67.9956L631.854 67.2419L631.512 67.5408L631.512 67.9956L632.512 67.9956ZM661.406 42.7971L662.063 43.5507L662.928 42.7971L662.063 42.0434L661.406 42.7971ZM632.512 17.5988L633.169 16.8451L632.869 16.5836L632.472 16.5996L632.512 17.5988ZM632.508 17.5989L632.444 18.5969L632.496 18.6002L632.548 18.5981L632.508 17.5989ZM632.505 17.5987L632.568 16.6007L632.157 16.5745L631.847 16.845L632.505 17.5987ZM603.61 42.7972L602.953 42.0435L602.088 42.7972L602.953 43.5509L603.61 42.7972ZM632.505 67.9957L633.505 67.9957L633.505 67.5409L633.162 67.242L632.505 67.9957ZM632.505 67.9988L631.505 67.9988L631.505 69.0432L632.548 68.9979L632.505 67.9988ZM490.321 67.9988L490.321 68.9988L492.989 68.9988L490.978 67.2451L490.321 67.9988ZM471.057 51.199L471.714 50.4453L471.432 50.199L471.057 50.199L471.057 51.199ZM449.13 51.199L449.13 50.199L448.755 50.199L448.473 50.4453L449.13 51.199ZM429.866 67.9988L429.209 67.2451L427.198 68.9988L429.866 68.9988L429.866 67.9988ZM471.053 34.399L471.053 35.399L471.428 35.399L471.71 35.1527L471.053 34.399ZM490.317 17.5989L490.975 18.3526L492.986 16.5989L490.317 16.5989L490.317 17.5989ZM429.87 17.5989L429.87 16.5989L427.202 16.5989L429.212 18.3526L429.87 17.5989ZM449.134 34.399L448.477 35.1527L448.759 35.399L449.134 35.399L449.134 34.399ZM517.569 67.9988L517.569 68.9988L518.569 68.9988L518.569 67.9988L517.569 67.9988ZM517.569 67.9958L516.912 67.2421L516.569 67.541L516.569 67.9958L517.569 67.9958ZM546.463 42.7972L547.121 43.5509L547.985 42.7972L547.121 42.0435L546.463 42.7972ZM517.569 17.5989L518.226 16.8453L517.944 16.5989L517.569 16.5989L517.569 17.5989ZM517.561 17.5989L517.561 16.5989L517.186 16.5989L516.904 16.8453L517.561 17.5989ZM488.667 42.7972L488.009 42.0436L487.145 42.7972L488.009 43.5509L488.667 42.7972ZM517.561 67.9957L518.561 68.0292L518.577 67.5543L518.219 67.242L517.561 67.9957ZM517.561 67.9988L516.562 67.9653L516.527 68.9988L517.561 68.9988L517.561 67.9988ZM375.378 67.9988L375.378 68.9988L378.046 68.9988L376.035 67.2451L375.378 67.9988ZM356.114 51.199L356.771 50.4453L356.489 50.199L356.114 50.199L356.114 51.199ZM334.187 51.199L334.187 50.199L333.812 50.199L333.53 50.4453L334.187 51.199ZM314.923 67.9988L314.266 67.2451L312.255 68.9988L314.923 68.9988L314.923 67.9988ZM356.11 34.399L356.11 35.399L356.485 35.399L356.767 35.1527L356.11 34.399ZM375.374 17.5989L376.031 18.3526L378.042 16.5989L375.374 16.5989L375.374 17.5989ZM314.927 17.5989L314.927 16.5989L312.258 16.5989L314.269 18.3526L314.927 17.5989ZM334.191 34.399L333.534 35.1527L333.816 35.399L334.191 35.399L334.191 34.399ZM402.626 67.9988L402.626 68.9988L403.626 68.9988L403.626 67.9988L402.626 67.9988ZM402.626 67.9957L401.968 67.242L401.626 67.5409L401.626 67.9957L402.626 67.9957ZM431.52 42.7972L432.178 43.5509L433.042 42.7972L432.178 42.0435L431.52 42.7972ZM402.626 17.5989L403.283 16.8453L403.001 16.5989L402.626 16.5989L402.626 17.5989ZM402.618 17.5989L402.618 16.5989L402.243 16.5989L401.961 16.8453L402.618 17.5989ZM373.723 42.7972L373.066 42.0435L372.202 42.7972L373.066 43.5509L373.723 42.7972ZM402.618 67.9957L403.618 68.0125L403.626 67.5476L403.275 67.242L402.618 67.9957ZM402.618 67.9988L401.618 67.982L401.601 68.9988L402.618 68.9988L402.618 67.9988ZM260.435 67.9988L260.435 68.9988L263.103 68.9988L261.092 67.2451L260.435 67.9988ZM241.171 51.199L241.828 50.4453L241.546 50.199L241.171 50.199L241.171 51.199ZM219.244 51.199L219.244 50.199L218.869 50.199L218.586 50.4453L219.244 51.199ZM199.98 67.9988L199.322 67.2451L197.311 68.9988L199.98 68.9988L199.98 67.9988ZM241.167 34.399L241.167 35.399L241.542 35.399L241.824 35.1527L241.167 34.399ZM260.431 17.5989L261.088 18.3526L263.099 16.5989L260.431 16.5989L260.431 17.5989ZM199.983 17.5989L199.983 16.5989L197.315 16.5989L199.326 18.3526L199.983 17.5989ZM219.248 34.399L218.59 35.1527L218.873 35.399L219.248 35.399L219.248 34.399ZM287.683 67.9988L287.683 68.9988L288.708 68.9988L288.682 67.9737L287.683 67.9988ZM287.683 67.9957L287.025 67.2421L286.671 67.551L286.683 68.0209L287.683 67.9957ZM316.577 42.7972L317.235 43.5509L318.099 42.7972L317.235 42.0435L316.577 42.7972ZM287.683 17.5989L288.34 16.8453L288.058 16.5989L287.683 16.5989L287.683 17.5989ZM287.675 17.5989L287.675 16.5989L287.3 16.5989L287.018 16.8453L287.675 17.5989ZM258.78 42.7972L258.123 42.0435L257.259 42.7972L258.123 43.5509L258.78 42.7972ZM287.675 67.9958L288.675 67.9958L288.675 67.541L288.332 67.2421L287.675 67.9958ZM287.675 67.9988L286.675 67.9988L286.675 68.9988L287.675 68.9988L287.675 67.9988ZM145.492 67.9988L145.492 68.9988L148.16 68.9988L146.149 67.2451L145.492 67.9988ZM126.228 51.199L126.885 50.4453L126.603 50.199L126.228 50.199L126.228 51.199ZM104.301 51.199L104.301 50.199L103.926 50.199L103.643 50.4453L104.301 51.199ZM85.0366 67.9988L84.3793 67.2451L82.3684 68.9988L85.0366 68.9988L85.0366 67.9988ZM126.224 34.399L126.224 35.399L126.598 35.399L126.881 35.1527L126.224 34.399ZM145.488 17.5989L146.145 18.3526L148.156 16.5989L145.488 16.5989L145.488 17.5989ZM85.0404 17.5989L85.0404 16.5989L82.3722 16.5989L84.3831 18.3526L85.0404 17.5989ZM104.305 34.399L103.647 35.1527L103.93 35.399L104.305 35.399L104.305 34.399ZM172.74 67.9988L172.74 68.9988L173.74 68.9988L173.74 67.9988L172.74 67.9988ZM172.74 67.9957L172.082 67.2421L171.74 67.5409L171.74 67.9957L172.74 67.9957ZM201.634 42.7972L202.291 43.5509L203.156 42.7972L202.291 42.0435L201.634 42.7972ZM172.74 17.5989L173.397 16.8453L173.115 16.5989L172.74 16.5989L172.74 17.5989ZM172.732 17.5989L172.732 16.5989L172.357 16.5989L172.074 16.8453L172.732 17.5989ZM143.837 42.7972L143.18 42.0435L142.316 42.7972L143.18 43.5509L143.837 42.7972ZM172.732 67.9957L173.732 68.025L173.745 67.5526L173.389 67.242L172.732 67.9957ZM172.732 67.9988L171.732 67.9695L171.702 68.9988L172.732 68.9988L172.732 67.9988ZM57.7965 67.9988L57.7965 68.9988L58.7965 68.9988L58.7965 67.9988L57.7965 67.9988ZM57.7965 67.9958L57.1393 67.2421L56.7965 67.541L56.7965 67.9958L57.7965 67.9958ZM86.6911 42.7972L87.3483 43.5509L88.2125 42.7972L87.3483 42.0435L86.6911 42.7972ZM57.7967 17.5989L58.454 16.8453L58.1715 16.5989L57.7967 16.5989L57.7967 17.5989ZM57.7886 17.5989L57.7886 16.5989L57.4138 16.5989L57.1314 16.8453L57.7886 17.5989ZM28.8942 42.7972L28.237 42.0435L27.3728 42.7972L28.237 43.5509L28.8942 42.7972ZM57.7889 67.9957L58.7887 68.0124L58.7965 67.5476L58.4461 67.242L57.7889 67.9957ZM57.7888 67.9988L56.789 67.9821L56.7719 68.9988L57.7888 68.9988L57.7888 67.9988ZM720.85 67.9988L720.85 68.9988L723.518 68.9988L721.507 67.2451L720.85 67.9988ZM701.585 51.1989L702.243 50.4452L701.96 50.1989L701.585 50.1989L701.585 51.1989ZM701.581 34.3989L701.581 35.3989L701.956 35.3989L702.239 35.1526L701.581 34.3989ZM720.846 17.5989L721.503 18.3526L723.514 16.5989L720.846 16.5989L720.846 17.5989ZM805.618 0.798832L805.618 -0.201168L805.618 0.798832ZM805.618 17.5988L805.618 16.5988L805.618 17.5988ZM775.073 17.5988L775.073 16.5988L772.405 16.5988L774.416 18.3525L775.073 17.5988ZM794.338 34.3988L793.68 35.1525L793.963 35.3988L794.338 35.3988L794.338 34.3988ZM805.618 34.3988L805.618 33.3988L805.618 34.3988ZM805.618 51.1988L805.618 50.1988L805.618 51.1988ZM794.333 51.1988L794.333 50.1988L793.959 50.1988L793.676 50.4451L794.333 51.1988ZM775.069 67.9987L774.412 67.245L772.401 68.9987L775.069 68.9987L775.069 67.9987ZM805.618 67.9987L805.618 66.9987L805.618 67.9987ZM805.618 84.7986L805.618 85.7986L805.618 84.7986ZM747.959 67.8821L747.302 68.6357L747.959 69.2089L748.617 68.6357L747.959 67.8821ZM776.724 42.7971L777.381 43.5507L778.245 42.7971L777.381 42.0434L776.724 42.7971ZM747.96 17.7122L748.617 16.9585L747.96 16.3853L747.302 16.9585L747.96 17.7122ZM719.195 42.7972L718.538 42.0435L717.674 42.7972L718.538 43.5508L719.195 42.7972ZM836.167 67.9988L836.167 68.9988L838.836 68.9988L836.825 67.2451L836.167 67.9988ZM816.903 51.1989L817.561 50.4453L817.278 50.1989L816.903 50.1989L816.903 51.1989ZM816.899 34.399L816.899 35.399L817.274 35.399L817.556 35.1526L816.899 34.399ZM836.164 17.5989L836.821 18.3526L838.832 16.5989L836.164 16.5989L836.164 17.5989ZM920.936 0.798833L920.936 1.79883L920.936 0.798833ZM920.936 17.5988L920.936 16.5988L920.936 17.5988ZM890.391 17.5988L890.391 16.5988L887.723 16.5988L889.734 18.3525L890.391 17.5988ZM909.655 34.3989L908.998 35.1525L909.281 35.3989L909.655 35.3989L909.655 34.3989ZM920.936 34.3989L920.936 33.3989L920.936 34.3989ZM920.936 51.1988L920.936 50.1988L920.936 51.1988ZM909.651 51.1988L909.651 50.1988L909.276 50.1988L908.994 50.4452L909.651 51.1988ZM890.387 67.9987L889.73 67.245L887.719 68.9987L890.387 68.9987L890.387 67.9987ZM920.936 67.9987L920.936 66.9987L920.936 67.9987ZM863.277 17.7122L863.935 16.9585L863.277 16.3853L862.62 16.9585L863.277 17.7122ZM892.042 42.7971L892.699 43.5507L893.563 42.7971L892.699 42.0434L892.042 42.7971ZM863.277 67.882L862.62 68.6357L863.277 69.2089L863.934 68.6357L863.277 67.882ZM834.513 42.7972L833.856 42.0435L832.991 42.7972L833.856 43.5508L834.513 42.7972ZM951.485 67.9988L951.485 68.9988L954.153 68.9988L952.142 67.2451L951.485 67.9988ZM932.221 51.1989L932.878 50.4452L932.596 50.1989L932.221 50.1989L932.221 51.1989ZM932.217 34.3989L932.217 35.3989L932.592 35.3989L932.874 35.1526L932.217 34.3989ZM951.481 17.5989L952.138 18.3526L954.149 16.5989L951.481 16.5989L951.481 17.5989ZM1036.25 0.798828L1036.25 -0.201172L1036.25 0.798828ZM1036.25 17.5988L1036.25 16.5988L1036.25 17.5988ZM1005.71 17.5988L1005.71 16.5988L1003.04 16.5988L1005.05 18.3525L1005.71 17.5988ZM1024.97 34.3988L1024.32 35.1525L1024.6 35.3988L1024.97 35.3988L1024.97 34.3988ZM1036.25 34.3988L1036.25 33.3988L1036.25 34.3988ZM1036.25 51.1988L1036.25 50.1988L1036.25 51.1988ZM1024.97 51.1988L1024.97 50.1988L1024.59 50.1988L1024.31 50.4451L1024.97 51.1988ZM1005.7 67.9987L1005.05 67.245L1003.04 68.9987L1005.7 68.9987L1005.7 67.9987ZM1036.25 67.9987L1036.25 66.9987L1036.25 67.9987ZM978.595 67.8821L977.938 68.6357L978.595 69.2089L979.252 68.6357L978.595 67.8821ZM1007.36 42.7971L1008.02 43.5507L1008.88 42.7971L1008.02 42.0434L1007.36 42.7971ZM978.595 17.7122L979.252 16.9585L978.595 16.3853L977.938 16.9585L978.595 17.7122ZM949.831 42.7972L949.173 42.0435L948.309 42.7972L949.173 43.5508L949.831 42.7972ZM1066.8 67.9988L1066.8 68.9988L1069.47 68.9988L1067.46 67.2451L1066.8 67.9988ZM1047.54 51.1989L1048.2 50.4452L1047.91 50.1989L1047.54 50.1989L1047.54 51.1989ZM1047.53 34.3989L1047.53 35.3989L1047.91 35.3989L1048.19 35.1526L1047.53 34.3989ZM1066.8 17.5989L1067.46 18.3526L1069.47 16.5989L1066.8 16.5989L1066.8 17.5989ZM1151.57 0.798829L1151.57 -0.201171L1151.57 0.798829ZM1151.57 17.5988L1151.57 16.5988L1151.57 17.5988ZM1121.03 17.5988L1121.03 16.5988L1118.36 16.5988L1120.37 18.3525L1121.03 17.5988ZM1140.29 34.3989L1139.63 35.1525L1139.92 35.3989L1140.29 35.3989L1140.29 34.3989ZM1151.57 34.3988L1151.57 33.3988L1151.57 34.3988ZM1151.57 51.1988L1151.57 50.1988L1151.57 51.1988ZM1140.29 51.1988L1140.29 50.1988L1139.91 50.1988L1139.63 50.4451L1140.29 51.1988ZM1121.02 67.9987L1120.37 67.245L1118.35 68.9987L1121.02 68.9987L1121.02 67.9987ZM1151.57 67.9987L1151.57 66.9987L1151.57 67.9987ZM1093.91 17.7121L1094.57 16.9585L1093.91 16.3853L1093.26 16.9585L1093.91 17.7121ZM1122.68 42.7971L1123.33 43.5507L1124.2 42.7971L1123.33 42.0434L1122.68 42.7971ZM1093.91 67.8821L1093.26 68.6357L1093.91 69.2089L1094.57 68.6357L1093.91 67.8821ZM1065.15 42.7972L1064.49 42.0435L1063.63 42.7972L1064.49 43.5508L1065.15 42.7972ZM1182.12 67.9988L1182.12 68.9988L1184.79 68.9988L1182.78 67.2451L1182.12 67.9988ZM1162.86 51.1989L1163.51 50.4452L1163.23 50.1989L1162.86 50.1989L1162.86 51.1989ZM1162.85 34.3989L1162.85 35.3989L1163.23 35.3989L1163.51 35.1526L1162.85 34.3989ZM1182.12 17.5989L1182.77 18.3526L1184.78 16.5989L1182.12 16.5989L1182.12 17.5989ZM1266.89 0.798831L1266.89 -0.201169L1266.89 0.798831ZM1266.89 17.5988L1266.89 16.5988L1266.89 17.5988ZM1236.34 17.5988L1236.34 16.5988L1233.68 16.5988L1235.69 18.3525L1236.34 17.5988ZM1255.61 34.3988L1254.95 35.1525L1255.23 35.3988L1255.61 35.3988L1255.61 34.3988ZM1266.89 34.3988L1266.89 33.3988L1266.89 34.3988ZM1266.89 51.1988L1266.89 50.1988L1266.89 51.1988ZM1255.6 51.1988L1255.6 50.1988L1255.23 50.1988L1254.95 50.4451L1255.6 51.1988ZM1236.34 67.9987L1235.68 67.245L1233.67 68.9987L1236.34 68.9987L1236.34 67.9987ZM1266.89 67.9987L1266.89 66.9987L1266.89 67.9987ZM1209.23 67.8821L1208.57 68.6357L1209.23 69.2089L1209.89 68.6357L1209.23 67.8821ZM1237.99 42.7971L1238.65 43.5507L1239.52 42.7971L1238.65 42.0434L1237.99 42.7971ZM1209.23 17.7122L1209.89 16.9585L1209.23 16.3853L1208.57 16.9585L1209.23 17.7122ZM1180.47 42.7972L1179.81 42.0435L1178.94 42.7972L1179.81 43.5508L1180.47 42.7972ZM1297.44 67.9988L1297.44 68.9988L1300.11 68.9988L1298.1 67.2451L1297.44 67.9988ZM1278.17 51.1989L1278.83 50.4452L1278.55 50.1989L1278.17 50.1989L1278.17 51.1989ZM1278.17 34.3989L1278.17 35.3989L1278.55 35.3989L1278.83 35.1526L1278.17 34.3989ZM1297.43 17.5989L1298.09 18.3526L1300.1 16.5989L1297.43 16.5989L1297.43 17.5989ZM1382.21 0.798832L1382.21 -0.201168L1382.21 0.798832ZM1382.21 17.5988L1382.21 16.5988L1382.21 17.5988ZM1351.66 17.5988L1351.66 16.5988L1348.99 16.5988L1351 18.3525L1351.66 17.5988ZM1370.93 34.3989L1370.27 35.1525L1370.55 35.3989L1370.93 35.3989L1370.93 34.3989ZM1382.21 34.3988L1382.21 33.3988L1382.21 34.3988ZM1382.21 51.1988L1382.21 50.1988L1382.21 51.1988ZM1370.92 51.1988L1370.92 50.1988L1370.55 50.1988L1370.26 50.4451L1370.92 51.1988ZM1351.66 67.9987L1351 67.245L1348.99 68.9987L1351.66 68.9987L1351.66 67.9987ZM1382.21 67.9987L1382.21 66.9987L1382.21 67.9987ZM1382.21 84.7986L1382.21 83.7986L1382.21 84.7986ZM1324.55 17.7122L1325.21 16.9586L1324.55 16.3854L1323.89 16.9586L1324.55 17.7122ZM1353.31 42.7971L1353.97 43.5507L1354.83 42.7971L1353.97 42.0434L1353.31 42.7971ZM1324.55 67.882L1323.89 68.6357L1324.55 69.2088L1325.21 68.6357L1324.55 67.882ZM1295.78 42.7972L1295.13 42.0435L1294.26 42.7972L1295.13 43.5508L1295.78 42.7972ZM1440 17.5989L1440 18.5989L1441 18.5989L1441 17.5989L1440 17.5989ZM1440 17.5989L1440 16.5989L1439.62 16.5989L1439.34 16.8452L1440 17.5989ZM1440 0.79894L1441 0.79894L1441 -0.201058L1440 -0.20106L1440 0.79894ZM1412.75 17.5989L1413.41 18.3526L1415.42 16.5989L1412.75 16.5989L1412.75 17.5989ZM1393.49 34.3989L1393.49 35.3989L1393.86 35.3989L1394.15 35.1526L1393.49 34.3989ZM1393.49 51.1989L1394.15 50.4452L1393.87 50.1989L1393.49 50.1989L1393.49 51.1989ZM1412.76 67.9988L1412.76 68.9988L1415.42 68.9988L1413.41 67.2451L1412.76 67.9988ZM1440 84.7987L1440 85.7987L1441 85.7987L1441 84.7987L1440 84.7987ZM1440 67.9988L1441 67.9988L1441 66.9988L1440 66.9988L1440 67.9988ZM1439.99 67.9988L1439.33 67.2475L1437.34 68.9988L1439.99 68.9988L1439.99 67.9988ZM1440 67.9957L1440.66 68.747L1441.51 67.9929L1440.65 67.242L1440 67.9957ZM1411.1 42.7972L1410.44 42.0435L1409.58 42.7972L1410.44 43.5508L1411.1 42.7972ZM690.3 16.5988L659.755 16.5988L659.755 18.5988L690.3 18.5988L690.3 16.5988ZM659.098 18.3525L678.363 35.1525L679.677 33.6452L660.413 16.8451L659.098 18.3525ZM679.02 35.3988L690.3 35.3988L690.3 33.3988L679.02 33.3988L679.02 35.3988ZM690.3 50.1988L679.016 50.1988L679.016 52.1988L690.3 52.1988L690.3 50.1988ZM678.358 50.4451L659.094 67.245L660.409 68.7523L679.673 51.9525L678.358 50.4451ZM659.752 68.9987L690.3 68.9987L690.3 66.9987L659.752 66.9987L659.752 68.9987ZM-0.999921 67.9988L-0.99992 84.7988L1.00008 84.7988L1.00008 67.9988L-0.999921 67.9988ZM30.5487 66.9988L7.94859e-05 66.9988L7.94855e-05 68.9988L30.5487 68.9988L30.5487 66.9988ZM10.6274 51.9526L29.8915 68.7525L31.206 67.2451L11.9419 50.4453L10.6274 51.9526ZM7.27682e-07 52.199L11.2847 52.199L11.2847 50.199L7.28068e-07 50.199L7.27682e-07 52.199ZM-1 34.399L-0.999999 51.199L1 51.199L1 34.399L-1 34.399ZM11.2806 33.399L-6.28191e-09 33.399L-6.6673e-09 35.399L11.2806 35.399L11.2806 33.399ZM29.8877 16.8453L10.6234 33.6453L11.9379 35.1527L31.2022 18.3526L29.8877 16.8453ZM8.38374e-05 18.5989L30.5449 18.5989L30.5449 16.5989L8.37318e-05 16.5989L8.38374e-05 18.5989ZM-0.999917 0.798977L-0.999916 17.5989L1.00008 17.5989L1.00008 0.798977L-0.999917 0.798977ZM585.343 51.9526L604.607 68.7525L605.922 67.2451L586.658 50.4453L585.343 51.9526ZM545.466 68.7525L564.73 51.9526L563.416 50.4453L544.152 67.2451L545.466 68.7525ZM604.603 16.8453L585.339 33.6453L586.654 35.1527L605.918 18.3526L604.603 16.8453ZM564.734 33.6453L545.47 16.8453L544.156 18.3526L563.42 35.1527L564.734 33.6453ZM632.508 68.9987L632.512 68.9987L632.512 66.9987L632.508 66.9987L632.508 68.9987ZM633.512 67.9987L633.512 67.9956L631.512 67.9956L631.512 67.9987L633.512 67.9987ZM633.169 68.7492L662.063 43.5507L660.749 42.0434L631.854 67.2419L633.169 68.7492ZM662.063 42.0434L633.169 16.8451L631.855 18.3525L660.749 43.5507L662.063 42.0434ZM632.472 16.5996L632.468 16.5997L632.548 18.5981L632.552 18.598L632.472 16.5996ZM632.441 18.5967L632.444 18.5969L632.572 16.601L632.568 16.6007L632.441 18.5967ZM604.267 43.5509L633.162 18.3524L631.847 16.845L602.953 42.0435L604.267 43.5509ZM633.162 67.242L604.267 42.0435L602.953 43.5509L631.847 68.7494L633.162 67.242ZM633.505 67.9988L633.505 67.9957L631.505 67.9957L631.505 67.9988L633.505 67.9988ZM632.464 66.9996L632.461 66.9997L632.548 68.9979L632.551 68.9977L632.464 66.9996ZM470.4 51.9526L489.664 68.7525L490.978 67.2451L471.714 50.4453L470.4 51.9526ZM430.523 68.7525L449.787 51.9526L448.473 50.4453L429.209 67.2451L430.523 68.7525ZM489.66 16.8453L470.396 33.6453L471.71 35.1527L490.975 18.3526L489.66 16.8453ZM449.791 33.6453L430.527 16.8453L429.212 18.3526L448.477 35.1527L449.791 33.6453ZM516.569 67.9958L516.569 67.9988L518.569 67.9988L518.569 67.9958L516.569 67.9958ZM545.806 42.0435L516.912 67.2421L518.226 68.7494L547.121 43.5509L545.806 42.0435ZM516.912 18.3526L545.806 43.5509L547.121 42.0435L518.226 16.8453L516.912 18.3526ZM489.324 43.5509L518.218 18.3526L516.904 16.8453L488.009 42.0436L489.324 43.5509ZM518.219 67.242L489.324 42.0436L488.009 43.5509L516.904 68.7494L518.219 67.242ZM518.561 68.0323L518.561 68.0292L516.562 67.9622L516.562 67.9653L518.561 68.0323ZM355.457 51.9526L374.721 68.7525L376.035 67.2451L356.771 50.4453L355.457 51.9526ZM315.58 68.7525L334.844 51.9526L333.53 50.4453L314.266 67.2451L315.58 68.7525ZM374.717 16.8453L355.453 33.6453L356.767 35.1527L376.031 18.3526L374.717 16.8453ZM334.848 33.6453L315.584 16.8453L314.269 18.3526L333.534 35.1527L334.848 33.6453ZM401.626 67.9957L401.626 67.9988L403.626 67.9988L403.626 67.9957L401.626 67.9957ZM430.863 42.0435L401.968 67.242L403.283 68.7494L432.178 43.5509L430.863 42.0435ZM401.969 18.3526L430.863 43.5509L432.178 42.0435L403.283 16.8453L401.969 18.3526ZM374.381 43.5509L403.275 18.3526L401.961 16.8453L373.066 42.0435L374.381 43.5509ZM403.275 67.242L374.381 42.0435L373.066 43.5509L401.961 68.7494L403.275 67.242ZM403.618 68.0156L403.618 68.0125L401.618 67.9789L401.618 67.982L403.618 68.0156ZM240.514 51.9526L259.778 68.7525L261.092 67.2451L241.828 50.4453L240.514 51.9526ZM200.637 68.7525L219.901 51.9526L218.586 50.4453L199.322 67.2451L200.637 68.7525ZM259.774 16.8453L240.51 33.6453L241.824 35.1527L261.088 18.3526L259.774 16.8453ZM219.905 33.6453L200.641 16.8453L199.326 18.3526L218.59 35.1527L219.905 33.6453ZM286.683 68.0209L286.683 68.024L288.682 67.9737L288.682 67.9706L286.683 68.0209ZM315.92 42.0435L287.025 67.2421L288.34 68.7494L317.235 43.5509L315.92 42.0435ZM287.026 18.3526L315.92 43.5509L317.235 42.0435L288.34 16.8453L287.026 18.3526ZM259.438 43.5509L288.332 18.3526L287.018 16.8453L258.123 42.0435L259.438 43.5509ZM288.332 67.2421L259.438 42.0435L258.123 43.5509L287.018 68.7495L288.332 67.2421ZM288.675 67.9988L288.675 67.9958L286.675 67.9958L286.675 67.9988L288.675 67.9988ZM125.57 51.9526L144.835 68.7525L146.149 67.2451L126.885 50.4453L125.57 51.9526ZM85.6938 68.7525L104.958 51.9526L103.643 50.4453L84.3793 67.2451L85.6938 68.7525ZM144.831 16.8453L125.566 33.6453L126.881 35.1527L146.145 18.3526L144.831 16.8453ZM104.962 33.6453L85.6976 16.8453L84.3831 18.3526L103.647 35.1527L104.962 33.6453ZM171.74 67.9957L171.74 67.9988L173.74 67.9988L173.74 67.9957L171.74 67.9957ZM200.977 42.0435L172.082 67.2421L173.397 68.7494L202.291 43.5509L200.977 42.0435ZM172.082 18.3526L200.977 43.5509L202.291 42.0435L173.397 16.8453L172.082 18.3526ZM144.495 43.5509L173.389 18.3526L172.074 16.8453L143.18 42.0435L144.495 43.5509ZM173.389 67.242L144.495 42.0435L143.18 43.5509L172.075 68.7494L173.389 67.242ZM173.731 68.0281L173.732 68.025L171.732 67.9664L171.732 67.9695L173.731 68.0281ZM56.7965 67.9958L56.7965 67.9988L58.7965 67.9988L58.7965 67.9958L56.7965 67.9958ZM86.0338 42.0435L57.1393 67.2421L58.4538 68.7495L87.3483 43.5509L86.0338 42.0435ZM57.1395 18.3526L86.0338 43.5509L87.3483 42.0435L58.454 16.8453L57.1395 18.3526ZM29.5515 43.5509L58.4459 18.3526L57.1314 16.8453L28.237 42.0435L29.5515 43.5509ZM58.4461 67.242L29.5515 42.0435L28.237 43.5509L57.1316 68.7494L58.4461 67.242ZM58.7887 68.0155L58.7887 68.0124L56.789 67.979L56.789 67.9821L58.7887 68.0155ZM720.85 66.9988L690.3 66.9987L690.3 68.9987L720.85 68.9988L720.85 66.9988ZM700.928 51.9526L720.192 68.7524L721.507 67.2451L702.243 50.4452L700.928 51.9526ZM690.3 52.1988L701.585 52.1989L701.585 50.1989L690.3 50.1988L690.3 52.1988ZM701.581 33.3989L690.3 33.3988L690.3 35.3988L701.581 35.3989L701.581 33.3989ZM720.188 16.8452L700.924 33.6453L702.239 35.1526L721.503 18.3526L720.188 16.8452ZM690.3 18.5988L720.846 18.5989L720.846 16.5989L690.3 16.5988L690.3 18.5988ZM805.618 16.5988L775.073 16.5988L775.073 18.5988L805.618 18.5988L805.618 16.5988ZM774.416 18.3525L793.68 35.1525L794.995 33.6452L775.73 16.8451L774.416 18.3525ZM794.338 35.3988L805.618 35.3988L805.618 33.3988L794.338 33.3988L794.338 35.3988ZM805.618 50.1988L794.333 50.1988L794.333 52.1988L805.618 52.1988L805.618 50.1988ZM793.676 50.4451L774.412 67.245L775.727 68.7523L794.991 51.9525L793.676 50.4451ZM775.069 68.9987L805.618 68.9987L805.618 66.9987L775.069 66.9987L775.069 68.9987ZM748.617 68.6357L777.381 43.5507L776.067 42.0434L747.302 67.1284L748.617 68.6357ZM777.381 42.0434L748.617 16.9585L747.302 18.4658L776.067 43.5507L777.381 42.0434ZM719.852 43.5508L748.617 18.4658L747.302 16.9585L718.538 42.0435L719.852 43.5508ZM748.617 67.1284L719.852 42.0435L718.538 43.5508L747.302 68.6357L748.617 67.1284ZM805.618 68.9987L836.167 68.9988L836.167 66.9988L805.618 66.9987L805.618 68.9987ZM836.825 67.2451L817.561 50.4453L816.246 51.9526L835.51 68.7524L836.825 67.2451ZM816.903 50.1989L805.618 50.1988L805.618 52.1988L816.903 52.1989L816.903 50.1989ZM805.618 35.3988L816.899 35.399L816.899 33.399L805.618 33.3988L805.618 35.3988ZM817.556 35.1526L836.821 18.3526L835.506 16.8452L816.242 33.6453L817.556 35.1526ZM836.164 16.5989L805.618 16.5988L805.618 18.5988L836.164 18.5989L836.164 16.5989ZM890.391 18.5988L920.936 18.5988L920.936 16.5988L890.391 16.5988L890.391 18.5988ZM910.313 33.6452L891.048 16.8451L889.734 18.3525L908.998 35.1525L910.313 33.6452ZM920.936 33.3989L909.655 33.3989L909.655 35.3989L920.936 35.3989L920.936 33.3989ZM909.651 52.1988L920.936 52.1988L920.936 50.1988L909.651 50.1988L909.651 52.1988ZM891.044 68.7523L910.308 51.9525L908.994 50.4452L889.73 67.245L891.044 68.7523ZM920.936 66.9987L890.387 66.9987L890.387 68.9987L920.936 68.9987L920.936 66.9987ZM862.62 18.4658L891.384 43.5507L892.699 42.0434L863.935 16.9585L862.62 18.4658ZM891.384 42.0434L862.62 67.1284L863.934 68.6357L892.699 43.5507L891.384 42.0434ZM833.856 43.5508L862.62 68.6357L863.934 67.1284L835.17 42.0435L833.856 43.5508ZM862.62 16.9585L833.856 42.0435L835.17 43.5508L863.935 18.4658L862.62 16.9585ZM951.485 66.9988L920.936 66.9987L920.936 68.9987L951.485 68.9988L951.485 66.9988ZM931.564 51.9526L950.828 68.7524L952.142 67.2451L932.878 50.4452L931.564 51.9526ZM920.936 52.1988L932.221 52.1989L932.221 50.1989L920.936 50.1988L920.936 52.1988ZM932.217 33.3989L920.936 33.3989L920.936 35.3989L932.217 35.3989L932.217 33.3989ZM950.824 16.8452L931.56 33.6453L932.874 35.1526L952.138 18.3526L950.824 16.8452ZM920.936 18.5988L951.481 18.5989L951.481 16.5989L920.936 16.5988L920.936 18.5988ZM1036.25 16.5988L1005.71 16.5988L1005.71 18.5988L1036.25 18.5988L1036.25 16.5988ZM1005.05 18.3525L1024.32 35.1525L1025.63 33.6452L1006.37 16.8451L1005.05 18.3525ZM1024.97 35.3988L1036.25 35.3988L1036.25 33.3988L1024.97 33.3988L1024.97 35.3988ZM1036.25 50.1988L1024.97 50.1988L1024.97 52.1988L1036.25 52.1988L1036.25 50.1988ZM1024.31 50.4451L1005.05 67.245L1006.36 68.7523L1025.63 51.9525L1024.31 50.4451ZM1005.7 68.9987L1036.25 68.9987L1036.25 66.9987L1005.7 66.9987L1005.7 68.9987ZM979.252 68.6357L1008.02 43.5507L1006.7 42.0434L977.938 67.1284L979.252 68.6357ZM1008.02 42.0434L979.252 16.9585L977.938 18.4658L1006.7 43.5507L1008.02 42.0434ZM950.488 43.5508L979.252 18.4658L977.938 16.9585L949.173 42.0435L950.488 43.5508ZM979.252 67.1284L950.488 42.0435L949.173 43.5508L977.938 68.6357L979.252 67.1284ZM1036.25 68.9987L1066.8 68.9988L1066.8 66.9988L1036.25 66.9987L1036.25 68.9987ZM1067.46 67.2451L1048.2 50.4452L1046.88 51.9526L1066.15 68.7524L1067.46 67.2451ZM1047.54 50.1989L1036.25 50.1988L1036.25 52.1988L1047.54 52.1989L1047.54 50.1989ZM1036.25 35.3988L1047.53 35.3989L1047.53 33.3989L1036.25 33.3988L1036.25 35.3988ZM1048.19 35.1526L1067.46 18.3526L1066.14 16.8452L1046.88 33.6453L1048.19 35.1526ZM1066.8 16.5989L1036.25 16.5988L1036.25 18.5988L1066.8 18.5989L1066.8 16.5989ZM1121.03 18.5988L1151.57 18.5988L1151.57 16.5988L1121.03 16.5988L1121.03 18.5988ZM1140.95 33.6452L1121.68 16.8451L1120.37 18.3525L1139.63 35.1525L1140.95 33.6452ZM1151.57 33.3988L1140.29 33.3989L1140.29 35.3989L1151.57 35.3988L1151.57 33.3988ZM1140.29 52.1988L1151.57 52.1988L1151.57 50.1988L1140.29 50.1988L1140.29 52.1988ZM1121.68 68.7523L1140.94 51.9525L1139.63 50.4451L1120.37 67.245L1121.68 68.7523ZM1151.57 66.9987L1121.02 66.9987L1121.02 68.9987L1151.57 68.9987L1151.57 66.9987ZM1093.26 18.4658L1122.02 43.5507L1123.33 42.0434L1094.57 16.9585L1093.26 18.4658ZM1122.02 42.0434L1093.26 67.1284L1094.57 68.6357L1123.33 43.5507L1122.02 42.0434ZM1064.49 43.5508L1093.26 68.6357L1094.57 67.1284L1065.81 42.0435L1064.49 43.5508ZM1093.26 16.9585L1064.49 42.0435L1065.81 43.5508L1094.57 18.4658L1093.26 16.9585ZM1182.12 66.9988L1151.57 66.9987L1151.57 68.9987L1182.12 68.9988L1182.12 66.9988ZM1162.2 51.9526L1181.46 68.7524L1182.78 67.2451L1163.51 50.4452L1162.2 51.9526ZM1151.57 52.1988L1162.86 52.1989L1162.86 50.1989L1151.57 50.1988L1151.57 52.1988ZM1162.85 33.3989L1151.57 33.3988L1151.57 35.3988L1162.85 35.3989L1162.85 33.3989ZM1181.46 16.8452L1162.2 33.6453L1163.51 35.1526L1182.77 18.3526L1181.46 16.8452ZM1151.57 18.5988L1182.12 18.5989L1182.12 16.5989L1151.57 16.5988L1151.57 18.5988ZM1266.89 16.5988L1236.34 16.5988L1236.34 18.5988L1266.89 18.5988L1266.89 16.5988ZM1235.69 18.3525L1254.95 35.1525L1256.27 33.6452L1237 16.8451L1235.69 18.3525ZM1255.61 35.3988L1266.89 35.3988L1266.89 33.3988L1255.61 33.3988L1255.61 35.3988ZM1266.89 50.1988L1255.6 50.1988L1255.6 52.1988L1266.89 52.1988L1266.89 50.1988ZM1254.95 50.4451L1235.68 67.245L1237 68.7523L1256.26 51.9525L1254.95 50.4451ZM1236.34 68.9987L1266.89 68.9987L1266.89 66.9987L1236.34 66.9987L1236.34 68.9987ZM1209.89 68.6357L1238.65 43.5507L1237.34 42.0434L1208.57 67.1284L1209.89 68.6357ZM1238.65 42.0434L1209.89 16.9585L1208.57 18.4659L1237.34 43.5507L1238.65 42.0434ZM1181.12 43.5508L1209.89 18.4659L1208.57 16.9585L1179.81 42.0435L1181.12 43.5508ZM1209.89 67.1284L1181.12 42.0435L1179.81 43.5508L1208.57 68.6357L1209.89 67.1284ZM1266.89 68.9987L1297.44 68.9988L1297.44 66.9988L1266.89 66.9987L1266.89 68.9987ZM1298.1 67.2451L1278.83 50.4452L1277.52 51.9526L1296.78 68.7524L1298.1 67.2451ZM1278.17 50.1989L1266.89 50.1988L1266.89 52.1988L1278.17 52.1989L1278.17 50.1989ZM1266.89 35.3988L1278.17 35.3989L1278.17 33.3989L1266.89 33.3988L1266.89 35.3988ZM1278.83 35.1526L1298.09 18.3526L1296.78 16.8452L1277.51 33.6453L1278.83 35.1526ZM1297.43 16.5989L1266.89 16.5988L1266.89 18.5988L1297.43 18.5989L1297.43 16.5989ZM1351.66 18.5988L1382.21 18.5988L1382.21 16.5988L1351.66 16.5988L1351.66 18.5988ZM1371.58 33.6452L1352.32 16.8451L1351 18.3525L1370.27 35.1525L1371.58 33.6452ZM1382.21 33.3988L1370.93 33.3989L1370.93 35.3989L1382.21 35.3988L1382.21 33.3988ZM1370.92 52.1988L1382.21 52.1988L1382.21 50.1988L1370.92 50.1988L1370.92 52.1988ZM1352.32 68.7523L1371.58 51.9525L1370.26 50.4451L1351 67.245L1352.32 68.7523ZM1382.21 66.9987L1351.66 66.9987L1351.66 68.9987L1382.21 68.9987L1382.21 66.9987ZM1323.89 18.4659L1352.66 43.5507L1353.97 42.0434L1325.21 16.9586L1323.89 18.4659ZM1352.66 42.0434L1323.89 67.1283L1325.21 68.6357L1353.97 43.5507L1352.66 42.0434ZM1295.13 43.5508L1323.89 68.6357L1325.21 67.1283L1296.44 42.0435L1295.13 43.5508ZM1323.89 16.9586L1295.13 42.0435L1296.44 43.5508L1325.21 18.4659L1323.89 16.9586ZM1440 16.5989L1440 16.5989L1440 18.5989L1440 18.5989L1440 16.5989ZM1439 0.79894L1439 17.5989L1441 17.5989L1441 0.79894L1439 0.79894ZM1382.21 1.79883L1440 1.79894L1440 -0.20106L1382.21 -0.201168L1382.21 1.79883ZM1412.75 16.5989L1382.21 16.5988L1382.21 18.5988L1412.75 18.5989L1412.75 16.5989ZM1394.15 35.1526L1413.41 18.3526L1412.09 16.8452L1392.83 33.6453L1394.15 35.1526ZM1382.21 35.3988L1393.49 35.3989L1393.49 33.3989L1382.21 33.3988L1382.21 35.3988ZM1393.49 50.1989L1382.21 50.1988L1382.21 52.1988L1393.49 52.1989L1393.49 50.1989ZM1413.41 67.2451L1394.15 50.4452L1392.83 51.9526L1412.1 68.7524L1413.41 67.2451ZM1382.21 68.9987L1412.76 68.9988L1412.76 66.9988L1382.21 66.9987L1382.21 68.9987ZM1440 83.7987L1382.21 83.7986L1382.21 85.7986L1440 85.7987L1440 83.7987ZM1439 67.9988L1439 84.7987L1441 84.7987L1441 67.9988L1439 67.9988ZM1439.99 68.9988L1440 68.9988L1440 66.9988L1439.99 66.9988L1439.99 68.9988ZM1439.34 67.2444L1439.33 67.2475L1440.65 68.7501L1440.66 68.747L1439.34 67.2444ZM1410.44 43.5508L1439.34 68.7493L1440.65 67.242L1411.76 42.0435L1410.44 43.5508ZM1439.34 16.8452L1410.44 42.0435L1411.76 43.5508L1440.65 18.3526L1439.34 16.8452ZM690.3 -0.20117L8.28381e-05 -0.201023L8.32624e-05 1.79898L690.3 1.79883L690.3 -0.20117ZM690.3 83.7986L8.00045e-05 83.7988L8.04355e-05 85.7988L690.3 85.7986L690.3 83.7986ZM605.264 66.9988L544.809 66.9988L544.809 68.9988L605.264 68.9988L605.264 66.9988ZM564.073 52.199L586 52.199L586 50.199L564.073 50.199L564.073 52.199ZM585.996 33.399L564.077 33.399L564.077 35.399L585.996 35.399L585.996 33.399ZM544.813 18.5989L605.261 18.5989L605.261 16.5989L544.813 16.5989L544.813 18.5989ZM490.321 66.9988L429.866 66.9988L429.866 68.9988L490.321 68.9988L490.321 66.9988ZM449.13 52.199L471.057 52.199L471.057 50.199L449.13 50.199L449.13 52.199ZM471.053 33.399L449.134 33.399L449.134 35.399L471.053 35.399L471.053 33.399ZM429.87 18.5989L490.317 18.5989L490.317 16.5989L429.87 16.5989L429.87 18.5989ZM517.569 66.9988L517.561 66.9988L517.561 68.9988L517.569 68.9988L517.569 66.9988ZM517.561 18.5989L517.569 18.5989L517.569 16.5989L517.561 16.5989L517.561 18.5989ZM375.378 66.9988L314.923 66.9988L314.923 68.9988L375.378 68.9988L375.378 66.9988ZM334.187 52.199L356.114 52.199L356.114 50.199L334.187 50.199L334.187 52.199ZM356.11 33.399L334.191 33.399L334.191 35.399L356.11 35.399L356.11 33.399ZM314.927 18.5989L375.374 18.5989L375.374 16.5989L314.927 16.5989L314.927 18.5989ZM402.626 66.9988L402.618 66.9988L402.618 68.9988L402.626 68.9988L402.626 66.9988ZM402.618 18.5989L402.626 18.5989L402.626 16.5989L402.618 16.5989L402.618 18.5989ZM260.435 66.9988L199.98 66.9988L199.98 68.9988L260.435 68.9988L260.435 66.9988ZM219.244 52.199L241.171 52.199L241.171 50.199L219.244 50.199L219.244 52.199ZM241.167 33.399L219.248 33.399L219.248 35.399L241.167 35.399L241.167 33.399ZM199.983 18.5989L260.431 18.5989L260.431 16.5989L199.983 16.5989L199.983 18.5989ZM287.683 66.9988L287.675 66.9988L287.675 68.9988L287.683 68.9988L287.683 66.9988ZM287.675 18.5989L287.683 18.5989L287.683 16.5989L287.675 16.5989L287.675 18.5989ZM145.492 66.9988L85.0366 66.9988L85.0366 68.9988L145.492 68.9988L145.492 66.9988ZM104.301 52.199L126.228 52.199L126.228 50.199L104.301 50.199L104.301 52.199ZM126.224 33.399L104.305 33.399L104.305 35.399L126.224 35.399L126.224 33.399ZM85.0404 18.5989L145.488 18.5989L145.488 16.5989L85.0404 16.5989L85.0404 18.5989ZM172.74 66.9988L172.732 66.9988L172.732 68.9988L172.74 68.9988L172.74 66.9988ZM172.732 18.5989L172.74 18.5989L172.74 16.5989L172.732 16.5989L172.732 18.5989ZM57.7965 66.9988L57.7888 66.9988L57.7888 68.9988L57.7965 68.9988L57.7965 66.9988ZM57.7886 18.5989L57.7967 18.5989L57.7967 16.5989L57.7886 16.5989L57.7886 18.5989ZM690.3 85.7986L805.618 85.7986L805.618 83.7986L690.3 83.7986L690.3 85.7986ZM805.618 -0.201168L690.3 -0.20117L690.3 1.79883L805.618 1.79883L805.618 -0.201168ZM920.936 83.7986L805.618 83.7986L805.618 85.7986L920.936 85.7986L920.936 83.7986ZM805.618 1.79883L920.936 1.79883L920.936 -0.201167L805.618 -0.201168L805.618 1.79883ZM920.936 85.7986L1036.25 85.7986L1036.25 83.7986L920.936 83.7986L920.936 85.7986ZM1036.25 -0.201172L920.936 -0.201167L920.936 1.79883L1036.25 1.79883L1036.25 -0.201172ZM1151.57 83.7986L1036.25 83.7986L1036.25 85.7986L1151.57 85.7986L1151.57 83.7986ZM1036.25 1.79883L1151.57 1.79883L1151.57 -0.201171L1036.25 -0.201172L1036.25 1.79883ZM1151.57 85.7986L1266.89 85.7986L1266.89 83.7986L1151.57 83.7986L1151.57 85.7986ZM1266.89 -0.201169L1151.57 -0.201171L1151.57 1.79883L1266.89 1.79883L1266.89 -0.201169ZM1382.21 83.7986L1266.89 83.7986L1266.89 85.7986L1382.21 85.7986L1382.21 83.7986ZM1266.89 1.79883L1382.21 1.79883L1382.21 -0.201168L1266.89 -0.201169L1266.89 1.79883Z" fill="url(#paint0_linear_2931_4028)" fill-opacity="0.4" mask="url(#path-1-inside-1_2931_4028)"/>
</g>
<defs>
<filter id="filter0_b_2931_4028" x="-4" y="-3.20117" width="1448" height="92" filterUnits="userSpaceOnUse" color-interpolation-filters="sRGB">
<feFlood flood-opacity="0" result="BackgroundImageFix"/>
<feGaussianBlur in="BackgroundImage" stdDeviation="2"/>
<feComposite in2="SourceAlpha" operator="in" result="effect1_backgroundBlur_2931_4028"/>
<feBlend mode="normal" in="SourceGraphic" in2="effect1_backgroundBlur_2931_4028" result="shape"/>
</filter>
<linearGradient id="paint0_linear_2931_4028" x1="-1270.03" y1="-524.394" x2="645.807" y2="177.851" gradientUnits="userSpaceOnUse">
<stop stop-color="white"/>
<stop offset="1" stop-color="white" stop-opacity="0"/>
</linearGradient>
</defs>
</svg>
